<svg viewBox="0 0 24 24" xmlns:xlink="http://www.w3.org/1999/xlink" xmlns="http://www.w3.org/2000/svg" width="24" height="24"><path fill-opacity=".8" d="M10.446 18.75a3.039 3.039 0 01-5.89-.001H3a2.25 2.25 0 01-2.25-2.25V6A2.25 2.25 0 013 3.75h10.499A2.25 2.25 0 0115.749 6v.749l4.116.001 3.385 5.02v6.98h-3.096a3.039 3.039 0 01-5.89-.001zm6.763-2.288a1.537 1.537 0 10-.001 3.075 1.537 1.537 0 00.001-3.075zm-9.708 0a1.537 1.537 0 10-.001 3.075 1.537 1.537 0 00.001-3.075zM13.499 5.25H3a.75.75 0 00-.75.75v10.5c0 .414.336.75.75.75h1.556a3.039 3.039 0 015.89 0h3.803V6a.75.75 0 00-.75-.75zm5.569 3H15.75l-.001 7.085a3.04 3.04 0 014.405 1.915h1.596v-5.02l-2.682-3.98z"></path></svg>